<?xml version="1.0" encoding="utf-8"?>
<!-- Generator: Adobe Illustrator 15.0.0, SVG Export Plug-In  -->
<!DOCTYPE svg PUBLIC "-//W3C//DTD SVG 1.1//EN" "http://www.w3.org/Graphics/SVG/1.1/DTD/svg11.dtd" [
	<!ENTITY ns_flows "http://ns.adobe.com/Flows/1.0/">
]>
<svg version="1.1"
	 xmlns="http://www.w3.org/2000/svg" xmlns:xlink="http://www.w3.org/1999/xlink" xmlns:a="http://ns.adobe.com/AdobeSVGViewerExtensions/3.0/"
	 x="0px" y="0px" width="60px" height="32px" viewBox="0 422.208 60 32" enable-background="new 0 422.208 60 32"
	 xml:space="preserve">
<defs>
</defs>
<path fill="#257C16" d="M59.786,422.836c0,0,0.596,18.619-23.336,27.398C12.519,459.014,0,450.332,0,450.332
	s2.557,0.316,4.746-1.857c2.19-2.176,15.699-19.168,24.8-22.881C42.656,420.244,59.786,422.836,59.786,422.836z"/>
<g display="none">
	<path display="inline" fill="#257C16" d="M88.874,452.408c-2.031-3.704-4.446-7.334-7.039-10.756
		c-2.609-3.426-5.459-6.679-8.619-9.608c-3.159-2.921-6.637-5.536-10.508-7.45c-3.854-1.916-8.157-3.07-12.529-2.927
		c4.355-0.396,8.796,0.514,12.841,2.245c4.064,1.727,7.78,4.199,11.184,7.002c3.405,2.813,6.51,5.973,9.382,9.324
		c2.868,3.372,5.51,6.873,7.897,10.688L88.874,452.408z"/>
</g>
<path display="none" fill="#257C16" d="M52.854,415.092c0,0,4.156,1.603,5.319,3.548c1.163,1.946,1.254,4.833,1.254,4.833
	s-4.063-0.97-5.819-5.244C51.852,413.954,52.854,415.092,52.854,415.092z"/>
<path display="none" fill="#603B13" d="M67.511,475.333c0,0,6.592-95.087-35.406-150.584c-9.351-12.356-8.545-24.402-13.013-32.416
	C3.493,264.357,7.121,270.069,6.845,211.667C6.533,145.744,70.919,58.666,70.919,58.666s-11.741,19.677-26.408,66
	c-18.584,58.697-21.928,69.077-21.383,95.773c0.852,41.715,15.313,51.813,33.144,81.811s23.399,58.497,23.399,58.497
	s1.253-101.45,16.84-130.494c17.667-32.92,26.961-92.673,33-129.712c2.541-15.584-6.576-34.542-7.788-51.875L106.511,0
	c0,0,58.653,78.999,34.653,144.333c-24,65.333-27.653,79.792-34.361,111.395c-2.555,12.035-0.284,49.835-7.292,93.605
	c-8.494,53.052-6.203,115.053-3,127.526"/>
</svg>
