<?xml version="1.0" encoding="utf-8"?>
<!-- Generator: Adobe Illustrator 15.0.0, SVG Export Plug-In  -->
<!DOCTYPE svg PUBLIC "-//W3C//DTD SVG 1.1//EN" "http://www.w3.org/Graphics/SVG/1.1/DTD/svg11.dtd" [
	<!ENTITY ns_flows "http://ns.adobe.com/Flows/1.0/">
]>
<svg version="1.1"
	 xmlns="http://www.w3.org/2000/svg" xmlns:xlink="http://www.w3.org/1999/xlink" xmlns:a="http://ns.adobe.com/AdobeSVGViewerExtensions/3.0/"
	 x="0px" y="0px" width="75px" height="44px" viewBox="78.098 321.163 75 44" enable-background="new 78.098 321.163 75 44"
	 xml:space="preserve">
<defs>
</defs>
<path fill="#257C16" d="M78.098,332.916c0,0,7.196-11.422,23.223-11.749c16.027-0.327,25.484,20.973,36.277,22.607
	c10.794,1.636,15.25,1.142,15.25,1.142C160.476,343.7,99.98,398.11,78.098,332.916z"/>
<path display="none" fill="#603B13" d="M60.848,475.333c0,0,6.592-95.087-35.406-150.584c-9.351-12.356-8.545-24.402-13.013-32.416
	C-3.17,264.357,0.458,270.069,0.181,211.667C-0.131,145.744,64.255,58.666,64.255,58.666s-11.741,19.677-26.408,66
	c-18.584,58.697-21.928,69.077-21.383,95.773c0.852,41.715,15.313,51.813,33.144,81.811s23.399,58.497,23.399,58.497
	s1.253-101.45,16.84-130.494c17.667-32.92,26.961-92.673,33-129.712c2.541-15.584-6.576-34.542-7.788-51.875L99.848,0
	c0,0,58.653,78.999,34.653,144.333c-24,65.333-27.653,79.792-34.361,111.395c-2.555,12.035-0.284,49.835-7.292,93.605
	c-8.494,53.052-6.203,115.053-3,127.526"/>
</svg>
