<?xml version="1.0" encoding="utf-8"?>
<!-- Generator: Adobe Illustrator 15.0.0, SVG Export Plug-In  -->
<!DOCTYPE svg PUBLIC "-//W3C//DTD SVG 1.1//EN" "http://www.w3.org/Graphics/SVG/1.1/DTD/svg11.dtd" [
	<!ENTITY ns_flows "http://ns.adobe.com/Flows/1.0/">
]>
<svg version="1.1"
	 xmlns="http://www.w3.org/2000/svg" xmlns:xlink="http://www.w3.org/1999/xlink" xmlns:a="http://ns.adobe.com/AdobeSVGViewerExtensions/3.0/"
	 x="0px" y="0px" width="173px" height="718px" viewBox="139.333 -9.998 173 718" enable-background="new 139.333 -9.998 173 718"
	 xml:space="preserve">
<defs>
</defs>
<path display="none" fill="#257C16" d="M208.275,566.172c0,0,0.596,18.619-23.336,27.398c-23.932,8.779-36.45,0.098-36.45,0.098
	s2.557,0.316,4.746-1.857c2.19-2.176,15.699-19.168,24.8-22.881C191.145,563.58,208.275,566.172,208.275,566.172z"/>
<path display="none" fill="#257C16" d="M205.437,493.585c0,0-3.526,16.085-28.715,25.325c-25.189,9.241-25.004,13.517-25.004,13.517
	s2.297-9.977,4.147-13.517c1.504-2.879,8.164-18.513,17.743-22.422C187.406,490.858,205.437,493.585,205.437,493.585z"/>
<path display="none" fill="#257C16" d="M233.25,476.252c0,0,7.196-11.422,23.223-11.749c16.027-0.327,25.484,20.973,36.277,22.607
	c10.794,1.636,15.25,1.142,15.25,1.142C315.628,487.036,255.133,541.446,233.25,476.252z"/>
<path display="none" fill="#257C16" d="M168.811,411.043c0,0,1.859-10.607,13.591-15.694c11.733-5.089,25.155,7.776,33.617,5.721
	c8.463-2.057,11.603-3.77,11.603-3.77C232.886,394.097,204.678,452.557,168.811,411.043z"/>
<path display="none" fill="#257C16" d="M251.231,387.897c0,0-15.067,6.645-37.391-8.239c-22.324-14.884-25.667-12.212-25.667-12.212
	s9.41-4.032,13.359-4.629c3.212-0.483,19.764-4.332,28.572,1.096C242.793,371.731,251.231,387.897,251.231,387.897z"/>
<g>
	<path fill="#257C16" d="M205.288,96.854c-0.153-2.282-0.1-4.444,0.077-6.65c0.184-2.191,0.521-4.372,1.078-6.501
		c0.559-2.124,1.341-4.207,2.481-6.085c1.131-1.874,2.657-3.528,4.511-4.621c-1.714,1.304-2.981,3.068-3.849,4.973
		c-0.873,1.91-1.38,3.962-1.673,6.031c-0.291,2.073-0.368,4.172-0.299,6.263c0.073,2.077,0.279,4.208,0.646,6.18L205.288,96.854z"/>
</g>
<path fill="#257C16" d="M210.209,76.309c0,0,1.386-1.694,1.409-2.808c0.024-1.113-0.638-2.369-0.638-2.369s-1.5,1.402-1.211,3.655
	S210.209,76.309,210.209,76.309z"/>
<path fill="#257C16" d="M210.297,76.06c0,0,2.164,0.327,3.134-0.221c0.97-0.548,1.712-1.757,1.712-1.757s-1.972-0.575-3.762,0.823
	C209.593,76.302,210.297,76.06,210.297,76.06z"/>
<g>
	<path fill="#257C16" d="M217.324,76.298c1.521-2.237,3.159-4.233,4.938-6.169c1.778-1.919,3.692-3.718,5.774-5.306
		c2.081-1.582,4.339-2.962,6.786-3.888c2.435-0.928,5.08-1.363,7.629-1.029c-2.571-0.082-5.083,0.601-7.33,1.717
		c-2.257,1.118-4.281,2.645-6.12,4.349c-1.838,1.709-3.499,3.606-5.016,5.605c-1.505,1.991-2.921,4.124-4.081,6.251L217.324,76.298z
		"/>
</g>
<path fill="#257C16" d="M236.971,60.603c0,0,2.557-0.552,3.408-1.577c0.852-1.024,1.167-2.69,1.167-2.69s-2.447,0.194-3.854,2.516
	S236.971,60.603,236.971,60.603z"/>
<g>
	<path fill="#257C16" d="M183.099,273.235c2.438-4.767,5.078-9.375,7.865-13.914c2.793-4.529,5.75-8.959,8.934-13.223
		c3.189-4.257,6.6-8.364,10.41-12.083c3.811-3.675,8.045-7.11,13.026-9.012c-4.916,2.058-9.002,5.599-12.672,9.365
		c-3.665,3.81-6.921,7.992-9.954,12.316c-3.027,4.332-5.824,8.822-8.455,13.404c-2.621,4.582-5.109,9.266-7.352,14.015
		L183.099,273.235z"/>
</g>
<path fill="#257C16" d="M218.09,228.01c0,0,4.16-1.592,6.327-0.925s4.167,2.75,4.167,2.75s-3.668,2-7.834,0
	S218.09,228.01,218.09,228.01z"/>
<path fill="#257C16" d="M217.973,228.373c0,0-4.334-1.026-5.749-2.798s-1.896-4.619-1.896-4.619s4.158,0.413,6.475,4.411
	C219.119,229.366,217.973,228.373,217.973,228.373z"/>
<g>
	<path fill="#257C16" d="M266.482,620.708c1.332-0.381,2.798-1.095,3.99-1.975c1.212-0.892,2.234-2.034,2.829-3.416
		c0.604-1.377,0.732-2.981,0.458-4.56c-0.274-1.582-0.891-3.132-1.676-4.589c0.994,1.324,1.857,2.779,2.402,4.406
		c0.544,1.617,0.708,3.455,0.237,5.22c-0.455,1.766-1.494,3.357-2.768,4.631c-1.306,1.284-2.721,2.295-4.47,3.108L266.482,620.708z"
		/>
</g>
<g>
	<path fill="#257C16" d="M251.529,622.732c1.129-1.254,2.19-2.816,2.994-4.401c0.808-1.604,1.398-3.324,1.552-5.101
		c0.163-1.771-0.169-3.596-1.051-5.209c-0.87-1.62-2.233-2.99-3.774-4.103c1.67,0.901,3.246,2.094,4.409,3.702
		c1.173,1.595,1.839,3.604,1.916,5.633c0.093,2.034-0.318,4.054-0.978,5.949c-0.684,1.911-1.543,3.668-2.74,5.42L251.529,622.732z"
		/>
</g>
<g>
	<path fill="#257C16" d="M255.233,623.647c1.977-0.291,4.09-0.878,6.046-1.632c1.973-0.767,3.87-1.747,5.579-3.002
		c1.704-1.255,3.216-2.8,4.331-4.635c1.122-1.829,1.813-3.94,2.056-6.127c0.006,2.197-0.439,4.433-1.394,6.479
		c-0.945,2.051-2.365,3.887-4.034,5.436c-1.674,1.551-3.585,2.833-5.602,3.895c-2.042,1.057-4.105,1.913-6.426,2.533
		L255.233,623.647z"/>
</g>
<g>
	<path fill="#257C16" d="M242.961,621.125c1.767-0.293,3.656-0.843,5.383-1.559c1.737-0.729,3.4-1.662,4.776-2.919
		c1.378-1.246,2.429-2.869,2.813-4.736c0.398-1.865,0.114-3.872-0.517-5.742c0.857,1.774,1.429,3.774,1.259,5.848
		c-0.152,2.07-1.103,4.079-2.471,5.666c-1.364,1.605-3.067,2.863-4.86,3.899c-1.819,1.03-3.669,1.849-5.748,2.475L242.961,621.125z"
		/>
</g>
<g>
	<path fill="#257C16" d="M202.702,625.447c1.391-2.124,2.657-4.481,3.749-6.854c1.093-2.386,2.021-4.854,2.689-7.393
		c0.663-2.537,1.071-5.157,0.987-7.79c-0.081-2.624-0.692-5.275-2.036-7.604c1.557,2.19,2.449,4.843,2.784,7.543
		c0.342,2.71,0.174,5.469-0.267,8.161c-0.446,2.697-1.168,5.343-2.069,7.922c-0.915,2.588-1.956,5.077-3.272,7.57L202.702,625.447z"
		/>
</g>
<g>
	<path fill="#257C16" d="M209.201,625.523c0.346-2.515,0.479-5.188,0.45-7.798c-0.036-2.624-0.255-5.252-0.74-7.833
		c-0.488-2.576-1.243-5.118-2.448-7.461c-1.198-2.336-2.887-4.469-5.099-5.996c2.345,1.312,4.289,3.325,5.749,5.622
		c1.471,2.301,2.502,4.865,3.258,7.487c0.753,2.628,1.234,5.327,1.526,8.043c0.283,2.731,0.41,5.426,0.289,8.244L209.201,625.523z"
		/>
</g>
<g>
	<path fill="#257C16" d="M231.599,148.852c-0.421-4.48-0.448-8.867-0.218-13.287c0.245-4.407,0.792-8.803,1.789-13.106
		c1-4.294,2.451-8.516,4.63-12.356c2.162-3.832,5.137-7.252,8.838-9.583c-3.561,2.542-6.277,6.073-8.176,9.935
		c-1.912,3.872-3.087,8.063-3.822,12.302c-0.73,4.247-1.018,8.562-1.01,12.868c0.019,4.293,0.305,8.645,0.942,12.82L231.599,148.852
		z"/>
</g>
<path fill="#257C16" d="M240.078,107.26c0,0,2.82-3.447,2.867-5.714c0.049-2.266-1.298-4.82-1.298-4.82s-3.053,2.854-2.464,7.438
	C239.771,108.746,240.078,107.26,240.078,107.26z"/>
<path fill="#257C16" d="M240.256,106.752c0,0,4.403,0.666,6.377-0.45c1.975-1.115,3.483-3.576,3.483-3.576s-4.012-1.17-7.654,1.674
	C238.822,107.247,240.256,106.752,240.256,106.752z"/>
<g>
	<path fill="#257C16" d="M278.324,223.298c1.521-2.237,3.159-4.233,4.938-6.169c1.778-1.919,3.692-3.718,5.773-5.306
		c2.081-1.582,4.34-2.962,6.786-3.888c2.436-0.928,5.08-1.363,7.629-1.029c-2.571-0.082-5.083,0.601-7.33,1.717
		c-2.258,1.118-4.281,2.645-6.12,4.349c-1.839,1.709-3.498,3.606-5.016,5.605c-1.505,1.991-2.921,4.124-4.081,6.251L278.324,223.298
		z"/>
</g>
<path fill="#257C16" d="M297.971,207.603c0,0,2.557-0.552,3.408-1.577c0.852-1.024,1.167-2.69,1.167-2.69s-2.447,0.194-3.854,2.516
	S297.971,207.603,297.971,207.603z"/>
<g>
	<path fill="#257C16" d="M261.201,352.525c0.492-4.195,0.629-8.554,0.5-12.845c-0.14-4.304-0.575-8.607-1.451-12.826
		c-0.88-4.211-2.198-8.359-4.242-12.163c-2.029-3.795-4.865-7.231-8.512-9.649c3.779,2.202,6.869,5.519,9.161,9.274
		c2.31,3.763,3.904,7.933,5.052,12.189c1.145,4.266,1.842,8.641,2.238,13.037c0.382,4.41,0.505,8.795,0.238,13.287L261.201,352.525z
		"/>
</g>
<path fill="#257C16" d="M273.283,296.554c0,0-2.937-3.349-3.063-5.612c-0.125-2.264,1.133-4.862,1.133-4.862
	s3.149,2.747,2.719,7.349C273.641,298.028,273.283,296.554,273.283,296.554z"/>
<g>
	<path fill="#257C16" d="M164.191,421.861c1.254-4.321,2.84-8.411,4.678-12.438c1.847-4.008,3.972-7.896,6.479-11.531
		c2.508-3.626,5.408-7.021,8.846-9.791c3.418-2.77,7.442-4.858,11.74-5.666c-4.246,1.056-8.069,3.342-11.254,6.236
		c-3.201,2.899-5.833,6.365-8.074,10.037c-2.239,3.682-4.092,7.59-5.667,11.597c-1.56,4-2.893,8.152-3.834,12.27L164.191,421.861z"
		/>
</g>
<path fill="#257C16" d="M187.357,386.293c0,0,3.889-2.17,4.766-4.262c0.877-2.09,0.563-4.96,0.563-4.96s-3.888,1.532-5.024,6.012
	C186.526,387.563,187.357,386.293,187.357,386.293z"/>
<g>
	<path fill="#257C16" d="M164.686,323.489c-0.777-4.432-1.156-8.802-1.28-13.227c-0.108-4.412,0.086-8.838,0.735-13.207
		c0.654-4.36,1.762-8.685,3.627-12.687c1.849-3.993,4.541-7.64,8.043-10.259c-3.347,2.818-5.772,6.555-7.355,10.557
		c-1.597,4.013-2.433,8.284-2.827,12.568c-0.388,4.292-0.33,8.616,0.022,12.908c0.362,4.278,0.995,8.592,1.964,12.704
		L164.686,323.489z"/>
</g>
<path fill="#257C16" d="M169.812,281.352c0,0,2.535-3.662,2.401-5.926c-0.133-2.262-1.68-4.7-1.68-4.7s-2.815,3.089-1.862,7.61
	C169.625,282.857,169.812,281.352,169.812,281.352z"/>
<g>
	<path fill="#257C16" d="M249.325,421.297c2.461-3.767,5.172-7.216,8.105-10.53c2.937-3.295,6.104-6.394,9.563-9.139
		c3.457-2.736,7.222-5.136,11.318-6.782c4.078-1.651,8.536-2.475,12.883-1.992c-4.369-0.229-8.693,0.841-12.584,2.68
		c-3.908,1.839-7.438,4.385-10.653,7.243c-3.216,2.867-6.129,6.064-8.805,9.438c-2.659,3.371-5.146,6.953-7.249,10.616
		L249.325,421.297z"/>
</g>
<path fill="#257C16" d="M281.864,394.04c0,0,4.354-0.94,5.803-2.685c1.449-1.743,1.986-4.58,1.986-4.58s-4.166,0.331-6.561,4.283
	C280.699,395.012,281.864,394.04,281.864,394.04z"/>
<path fill="#383838" d="M229.691,626.159c0,0,6.572,6.675,5.711,15.228c-0.86,8.554,8.161,15.822,8.161,15.822
	s-5.975-7.269-5.31-11.534c0.666-4.267,0.666-4.267,0.666-4.267s0.272-7.645-3.902-14.493"/>
<path fill="#383838" d="M236.504,641.19c0,0-0.975,1.895-2.883,2.316c-1.91,0.423-2.839,2.888-2.839,2.888s1.146-1.808,2.115-1.967
	c0.969-0.159,0.969-0.159,0.969-0.159s1.671-0.484,2.854-1.873"/>
<path fill="#383838" d="M235.608,643.007c0,0,0.782,1.981-0.158,3.695c-0.94,1.715,0.301,4.038,0.301,4.038
	s-0.604-2.053-0.085-2.887c0.519-0.834,0.519-0.834,0.519-0.834s0.737-1.575,0.473-3.381"/>
<path fill="#383838" d="M223.75,620.195c0,0,4.834,18.057-5.083,32.057c-3.583,5.059-4.762,11.096-4.806,16.744
	c-0.005,0.622-3.757-6.104-3.736-5.494c0.315,9.193,7.125,24.25,7.125,24.25s-2.473-7.87,0.375-13
	c1.108-1.997,9.051-0.412,9.241-2.523c0.046-0.518-10.288-1.415-10.22-1.921c0.413-3.082,1.242-5.908,2.748-7.806
	c5.356-6.75,5.356-6.75,5.356-6.75s8-13,7.5-29"/>
<g>
	<path fill="#257C16" d="M202.86,497.741c0.516-4.47,1.396-8.768,2.537-13.045c1.152-4.26,2.597-8.448,4.463-12.451
		c1.868-3.993,4.161-7.824,7.088-11.13c2.908-3.301,6.527-6.032,10.63-7.546c-4.01,1.749-7.398,4.642-10.055,8.027
		c-2.673,3.393-4.69,7.249-6.286,11.244c-1.594,4.003-2.768,8.166-3.652,12.38c-0.87,4.204-1.491,8.521-1.732,12.737L202.86,497.741
		z"/>
</g>
<path fill="#257C16" d="M219.764,458.806c0,0,3.472-2.789,3.988-4.997c0.517-2.208-0.274-4.985-0.274-4.985s-3.577,2.16-3.95,6.766
	C219.156,460.195,219.764,458.806,219.764,458.806z"/>
<g>
	<path fill="#257C16" d="M206.362,501.744c-2.031-3.704-4.446-7.334-7.039-10.756c-2.609-3.426-5.459-6.679-8.619-9.608
		c-3.159-2.921-6.637-5.536-10.508-7.45c-3.854-1.916-8.157-3.07-12.529-2.927c4.355-0.396,8.796,0.514,12.841,2.245
		c4.064,1.727,7.78,4.199,11.184,7.002c3.405,2.813,6.51,5.973,9.382,9.324c2.868,3.372,5.51,6.873,7.897,10.688L206.362,501.744z"
		/>
</g>
<g>
	<path fill="#257C16" d="M237.362,595.744c-2.031-3.704-4.446-7.334-7.039-10.756c-2.609-3.426-5.459-6.679-8.619-9.608
		c-3.159-2.921-6.637-5.536-10.508-7.45c-3.854-1.916-8.157-3.07-12.529-2.927c4.355-0.396,8.796,0.514,12.841,2.245
		c4.064,1.727,7.78,4.199,11.184,7.002c3.405,2.813,6.51,5.973,9.382,9.324c2.868,3.372,5.51,6.873,7.897,10.688L237.362,595.744z"
		/>
</g>
<g>
	<path fill="#257C16" d="M224.099,590.234c2.438-4.766,5.078-9.375,7.865-13.913c2.793-4.529,5.75-8.959,8.934-13.224
		c3.189-4.256,6.6-8.363,10.41-12.083c3.812-3.675,8.045-7.109,13.026-9.012c-4.916,2.058-9.002,5.599-12.672,9.365
		c-3.665,3.81-6.922,7.991-9.955,12.316c-3.027,4.331-5.824,8.821-8.455,13.403c-2.621,4.583-5.109,9.266-7.352,14.016
		L224.099,590.234z"/>
</g>
<path fill="#257C16" d="M259.09,545.01c0,0,4.16-1.592,6.327-0.925s4.167,2.75,4.167,2.75s-3.668,2-7.834,0
	S259.09,545.01,259.09,545.01z"/>
<path fill="#257C16" d="M258.973,545.373c0,0-4.334-1.026-5.749-2.798s-1.896-4.619-1.896-4.619s4.158,0.413,6.475,4.411
	C260.119,546.366,258.973,545.373,258.973,545.373z"/>
<path fill="#257C16" d="M201.342,558.428c0,0,4.156,1.603,5.319,3.548c1.163,1.946,1.254,4.833,1.254,4.833s-4.063-0.97-5.819-5.244
	C200.34,557.29,201.342,558.428,201.342,558.428z"/>
<path fill="#603B13" d="M216,618.669c0,0,6.592-95.087-35.406-150.584c-9.351-12.356-8.545-24.402-13.013-32.416
	c-15.599-27.976-11.971-22.264-12.247-80.666c-0.312-65.923,64.074-153.001,64.074-153.001s-11.741,19.677-26.408,66
	c-18.584,58.697-21.928,69.077-21.383,95.773c0.852,41.715,15.313,51.813,33.144,81.811s23.399,58.497,23.399,58.497
	s1.253-101.45,16.84-130.494c17.667-32.92,26.961-92.673,33-129.712c2.541-15.584-6.576-34.542-7.788-51.875L255,143.336
	c0,0,58.653,78.999,34.653,144.333c-24,65.333-27.653,79.792-34.361,111.395c-2.555,12.035-0.284,49.835-7.292,93.605
	c-8.494,53.052-6.203,115.053-3,127.526"/>
<g>
	<line fill="#FFFFFF" x1="456" y1="620.002" x2="0" y2="620.002"/>
	<path fill="#824F12" d="M456,620.695c-19,0.311-37.998,0.606-56.979,1.056c-18.98,0.374-37.979,0.902-56.96,1.39l-14.245,0.369
		l-7.121,0.185l-7.121,0.25c-9.49,0.305-18.981,0.848-28.472,1.386c-9.49,0.535-18.98,1.082-28.471,1.39
		c-9.491,0.34-18.981,0.39-28.471,0.279c-18.98-0.262-37.961-0.44-56.941-0.771c-18.98-0.397-38.158-0.673-57.139-1.231
		C76.12,624.024,38,622.769,0,620.695v-1c38-2.073,76.119-3.329,114.08-4.302c18.98-0.559,38.06-0.834,57.041-1.231
		c18.98-0.33,38.01-0.509,56.99-0.771c9.49-0.11,19.005-0.061,28.496,0.279c9.49,0.308,18.992,0.854,28.482,1.39
		c9.49,0.538,18.987,1.081,28.478,1.386l7.121,0.25l7.118,0.185l14.236,0.369c18.98,0.487,37.999,1.016,56.979,1.39
		c18.98,0.449,37.979,0.745,56.979,1.056V620.695z"/>
</g>
<path fill="#257C16" d="M176.973,472.373c0,0-4.334-1.026-5.749-2.798s-1.896-4.619-1.896-4.619s4.158,0.413,6.475,4.411
	C178.119,473.366,176.973,472.373,176.973,472.373z"/>
<path fill="#383838" d="M224.744,640.319c0,0-4.087,3.722-9.109,3.016c-5.024-0.703-9.518,4.446-9.518,4.446
	s4.423-3.355,6.924-2.864c2.499,0.492,2.499,0.492,2.499,0.492s4.501,0.336,8.636-1.967"/>
<path fill="#603B13" d="M288.634,267.491c0,0,4.679-16.474-10.386-25.937c-15.063-9.463-40.8-2.345-40.8-2.345
	s43.725-3.825,47.723,28.51"/>
<path fill="#603B13" d="M171.135,326.491c0,0-4.679-16.474,10.386-25.937c15.063-9.463,40.8-2.345,40.8-2.345
	s-43.725-3.825-47.723,28.51"/>
<path fill="#257C16" d="M187.71,385.887c0,0,3.851,2.237,6.097,1.925c2.245-0.312,4.553-2.046,4.553-2.046s-3.301-2.563-7.734-1.255
	C186.194,385.819,187.71,385.887,187.71,385.887z"/>
<circle fill="#383838" cx="220.375" cy="660.915" r="13.042"/>
<circle fill="#FFFFFF" cx="220.054" cy="660.617" r="11.052"/>
<path fill="#603B13" d="M282.667,204.335c0,0,1.963-24.671-0.167-42.333c-2.13-17.661-17.364-31.139-17.364-31.139
	s17.007,26.583,10.031,58.639"/>
<path fill="#603B13" d="M270.118,191.696c0,0-31.982-29.085-50.375-54.131c-18.391-25.045-15.088-60.42-15.088-60.42
	s10.1,54.188,57.291,86.69"/>
<path fill="#603B13" d="M211.331,110.795c0,0,11.042-22.149,15.668-39.328c3.382-12.56-0.05-41.828-3.428-58.34
	C222.33,7.057,219.022,0,219.022,0s0.926,10.334,0.478,11.71s-3.46,2.754-3.405,3.452c1.662,21.076,7.06,59.613-6.176,79.071"/>
<path fill="#603B13" d="M219.022,77.96c0,0,8.958-14.595,26.121-9.913c17.162,4.681,29.345,28.443,29.345,28.443
	s-26.783-34.772-53.29-15.827"/>
<circle fill="#603B13" cx="223.571" cy="33.042" r="19.375"/>
<circle fill="#FFFFFF" cx="223.125" cy="33.502" r="17.125"/>
<polygon fill="#EFE91D" points="223.041,19.127 227.242,27.64 236.637,29.005 229.838,35.631 231.444,44.988 223.041,40.57 
	214.638,44.988 216.243,35.631 209.445,29.005 218.839,27.64 "/>
</svg>
