<?xml version="1.0" encoding="utf-8"?>
<!-- Generator: Adobe Illustrator 15.0.0, SVG Export Plug-In  -->
<!DOCTYPE svg PUBLIC "-//W3C//DTD SVG 1.1//EN" "http://www.w3.org/Graphics/SVG/1.1/DTD/svg11.dtd" [
	<!ENTITY ns_flows "http://ns.adobe.com/Flows/1.0/">
]>
<svg version="1.1"
	 xmlns="http://www.w3.org/2000/svg" xmlns:xlink="http://www.w3.org/1999/xlink" xmlns:a="http://ns.adobe.com/AdobeSVGViewerExtensions/3.0/"
	 x="0px" y="0px" width="63px" height="28px" viewBox="33.021 217.707 63 28" enable-background="new 33.021 217.707 63 28"
	 xml:space="preserve">
<defs>
</defs>
<path fill="#257C16" d="M96.079,244.562c0,0-15.067,6.645-37.391-8.239c-22.324-14.884-25.667-12.212-25.667-12.212
	s9.41-4.032,13.359-4.629c3.212-0.483,19.764-4.332,28.572,1.096C87.641,228.396,96.079,244.562,96.079,244.562z"/>
<g display="none">
	<path display="inline" fill="#257C16" d="M9.039,278.525c1.254-4.321,2.84-8.411,4.678-12.438
		c1.847-4.008,3.972-7.896,6.479-11.531c2.508-3.626,5.408-7.021,8.846-9.791c3.418-2.77,7.442-4.858,11.74-5.666
		c-4.246,1.056-8.069,3.342-11.254,6.236c-3.201,2.899-5.833,6.365-8.074,10.037c-2.239,3.682-4.092,7.59-5.667,11.597
		c-1.56,4-2.893,8.152-3.834,12.27L9.039,278.525z"/>
</g>
<path display="none" fill="#257C16" d="M32.205,242.957c0,0,3.889-2.17,4.766-4.262c0.877-2.09,0.563-4.96,0.563-4.96
	s-3.888,1.532-5.024,6.012C31.374,244.227,32.205,242.957,32.205,242.957z"/>
<path display="none" fill="#603B13" d="M60.848,475.333c0,0,6.592-95.087-35.406-150.584c-9.351-12.356-8.545-24.402-13.013-32.416
	C-3.17,264.357,0.458,270.069,0.181,211.667C-0.131,145.744,64.255,58.666,64.255,58.666s-11.741,19.677-26.408,66
	c-18.584,58.697-21.928,69.077-21.383,95.773c0.852,41.715,15.313,51.813,33.144,81.811s23.399,58.497,23.399,58.497
	s1.253-101.45,16.84-130.494c17.667-32.92,26.961-92.673,33-129.712c2.541-15.584-6.576-34.542-7.788-51.875L99.848,0
	c0,0,58.653,78.999,34.653,144.333c-24,65.333-27.653,79.792-34.361,111.395c-2.555,12.035-0.284,49.835-7.292,93.605
	c-8.494,53.052-6.203,115.053-3,127.526"/>
<path display="none" fill="#257C16" d="M32.558,242.551c0,0,3.851,2.237,6.097,1.925c2.245-0.312,4.553-2.046,4.553-2.046
	s-3.301-2.563-7.734-1.255C31.042,242.483,32.558,242.551,32.558,242.551z"/>
</svg>
