<?xml version="1.0" encoding="utf-8"?>
<!-- Generator: Adobe Illustrator 15.0.0, SVG Export Plug-In  -->
<!DOCTYPE svg PUBLIC "-//W3C//DTD SVG 1.1//EN" "http://www.w3.org/Graphics/SVG/1.1/DTD/svg11.dtd" [
	<!ENTITY ns_flows "http://ns.adobe.com/Flows/1.0/">
]>
<svg version="1.1"
	 xmlns="http://www.w3.org/2000/svg" xmlns:xlink="http://www.w3.org/1999/xlink" xmlns:a="http://ns.adobe.com/AdobeSVGViewerExtensions/3.0/"
	 x="0px" y="0px" width="54px" height="40px" viewBox="0 349.589 54 40" enable-background="new 0 349.589 54 40"
	 xml:space="preserve">
<defs>
</defs>
<path fill="#257C16" d="M53.72,350.249c0,0-3.526,16.085-28.715,25.325C-0.185,384.815,0,389.091,0,389.091
	s2.297-9.977,4.147-13.517c1.504-2.879,8.164-18.513,17.743-22.422C35.689,347.522,53.72,350.249,53.72,350.249z"/>
<g display="none">
	<path display="inline" fill="#257C16" d="M51.143,354.405c0.516-4.47,1.396-8.768,2.537-13.045
		c1.152-4.26,2.597-8.448,4.463-12.451c1.868-3.993,4.161-7.824,7.088-11.13c2.908-3.301,6.527-6.032,10.63-7.546
		c-4.01,1.749-7.398,4.642-10.055,8.027c-2.673,3.393-4.69,7.249-6.286,11.244c-1.594,4.003-2.768,8.166-3.652,12.38
		c-0.87,4.204-1.491,8.521-1.732,12.737L51.143,354.405z"/>
</g>
<g display="none">
	<path display="inline" fill="#257C16" d="M54.645,358.408c-2.031-3.704-4.446-7.334-7.039-10.756
		c-2.609-3.426-5.459-6.679-8.619-9.608c-3.159-2.921-6.637-5.536-10.508-7.45c-3.854-1.916-8.157-3.07-12.529-2.927
		c4.355-0.396,8.796,0.514,12.841,2.245c4.064,1.727,7.78,4.199,11.184,7.002c3.405,2.813,6.51,5.973,9.382,9.324
		c2.868,3.372,5.51,6.873,7.897,10.688L54.645,358.408z"/>
</g>
<path display="none" fill="#603B13" d="M64.283,475.333c0,0,6.592-95.087-35.406-150.584c-9.351-12.356-8.545-24.402-13.013-32.416
	C0.265,264.357,3.893,270.069,3.616,211.667C3.304,145.744,67.69,58.666,67.69,58.666s-11.741,19.677-26.408,66
	c-18.584,58.697-21.928,69.077-21.383,95.773c0.852,41.715,15.313,51.813,33.144,81.811s23.399,58.497,23.399,58.497
	s1.253-101.45,16.84-130.494c17.667-32.92,26.961-92.673,33-129.712c2.541-15.584-6.576-34.542-7.788-51.875L103.283,0
	c0,0,58.653,78.999,34.653,144.333c-24,65.333-27.653,79.792-34.361,111.395c-2.555,12.035-0.284,49.835-7.292,93.605
	c-8.494,53.052-6.203,115.053-3,127.526"/>
</svg>
