<?xml version="1.0" encoding="utf-8"?>
<!-- Generator: Adobe Illustrator 15.0.0, SVG Export Plug-In  -->
<!DOCTYPE svg PUBLIC "-//W3C//DTD SVG 1.1//EN" "http://www.w3.org/Graphics/SVG/1.1/DTD/svg11.dtd" [
	<!ENTITY ns_flows "http://ns.adobe.com/Flows/1.0/">
]>
<svg version="1.1"
	 xmlns="http://www.w3.org/2000/svg" xmlns:xlink="http://www.w3.org/1999/xlink" xmlns:a="http://ns.adobe.com/AdobeSVGViewerExtensions/3.0/"
	 x="0px" y="0px" width="81px" height="60px" viewBox="-2.917 -4.334 81 60" enable-background="new -2.917 -4.334 81 60"
	 xml:space="preserve">
<defs>
</defs>
<path fill="#FFFFFF" d="M76.5,5.75c0,3.176-2.574,5.75-5.75,5.75h-65C2.574,11.5,0,8.926,0,5.75l0,0C0,2.574,2.574,0,5.75,0h65
	C73.926,0,76.5,2.574,76.5,5.75L76.5,5.75z"/>
<path fill="#FFFFFF" d="M76.5,46.75c0,3.176-2.574,5.75-5.75,5.75h-65C2.574,52.5,0,49.926,0,46.75l0,0C0,43.574,2.574,41,5.75,41
	h65C73.926,41,76.5,43.574,76.5,46.75L76.5,46.75z"/>
<path fill="#FFFFFF" d="M76.5,26.5c0,3.176-2.574,5.75-5.75,5.75h-65C2.574,32.25,0,29.676,0,26.5l0,0c0-3.176,2.574-5.75,5.75-5.75
	h65C73.926,20.75,76.5,23.324,76.5,26.5L76.5,26.5z"/>
</svg>
