<?xml version="1.0" encoding="utf-8"?>
<!-- Generator: Adobe Illustrator 15.0.0, SVG Export Plug-In  -->
<!DOCTYPE svg PUBLIC "-//W3C//DTD SVG 1.1//EN" "http://www.w3.org/Graphics/SVG/1.1/DTD/svg11.dtd" [
	<!ENTITY ns_flows "http://ns.adobe.com/Flows/1.0/">
]>
<svg version="1.1"
	 xmlns="http://www.w3.org/2000/svg" xmlns:xlink="http://www.w3.org/1999/xlink" xmlns:a="http://ns.adobe.com/AdobeSVGViewerExtensions/3.0/"
	 x="0px" y="0px" width="173px" height="130px" viewBox="139.333 434.666 173 130" enable-background="new 139.333 434.666 173 130"
	 xml:space="preserve">
<defs>
</defs>
<path fill="#383838" d="M229.691,482.823c0,0,6.572,6.675,5.711,15.228c-0.86,8.554,8.161,15.822,8.161,15.822
	s-5.975-7.269-5.31-11.534c0.666-4.267,0.666-4.267,0.666-4.267s0.272-7.645-3.902-14.493"/>
<path fill="#383838" d="M236.504,497.854c0,0-0.975,1.895-2.883,2.316c-1.91,0.423-2.839,2.888-2.839,2.888s1.146-1.808,2.115-1.967
	c0.969-0.159,0.969-0.159,0.969-0.159s1.671-0.484,2.854-1.873"/>
<path fill="#383838" d="M235.608,499.671c0,0,0.782,1.981-0.158,3.695c-0.94,1.715,0.301,4.038,0.301,4.038
	s-0.604-2.053-0.085-2.887c0.519-0.834,0.519-0.834,0.519-0.834s0.737-1.575,0.473-3.381"/>
<path fill="#383838" d="M223.75,476.859c0,0,4.834,18.057-5.083,32.057c-3.583,5.059-4.762,11.096-4.806,16.744
	c-0.005,0.622-3.757-6.104-3.736-5.494c0.315,9.193,7.125,24.25,7.125,24.25s-2.473-7.87,0.375-13
	c1.108-1.997,9.051-0.412,9.241-2.523c0.046-0.518-10.288-1.415-10.22-1.921c0.413-3.082,1.242-5.908,2.748-7.806
	c5.356-6.75,5.356-6.75,5.356-6.75s8-13,7.5-29"/>
<g>
	<path fill="#257C16" d="M237.362,452.408c-2.031-3.704-4.446-7.334-7.039-10.756c-2.609-3.426-5.459-6.679-8.619-9.608
		c-3.159-2.921-6.637-5.536-10.508-7.45c-3.854-1.916-8.157-3.07-12.529-2.927c4.355-0.396,8.796,0.514,12.841,2.245
		c4.064,1.727,7.78,4.199,11.184,7.002c3.405,2.813,6.51,5.973,9.382,9.324c2.868,3.372,5.51,6.873,7.897,10.688L237.362,452.408z"
		/>
</g>
<g>
	<path fill="#257C16" d="M224.099,446.898c2.438-4.766,5.078-9.375,7.865-13.913c2.793-4.529,5.75-8.959,8.934-13.224
		c3.189-4.256,6.6-8.363,10.41-12.083c3.812-3.675,8.045-7.109,13.026-9.012c-4.916,2.058-9.002,5.599-12.672,9.365
		c-3.665,3.81-6.922,7.991-9.955,12.316c-3.027,4.331-5.824,8.821-8.455,13.403c-2.621,4.583-5.109,9.266-7.352,14.016
		L224.099,446.898z"/>
</g>
<path fill="#603B13" d="M216,475.333c0,0,6.592-95.087-35.406-150.584c-9.351-12.356-8.545-24.402-13.013-32.416
	c-15.599-27.976-11.971-22.264-12.247-80.666c-0.312-65.923,64.074-153.001,64.074-153.001s-11.741,19.677-26.408,66
	c-18.584,58.697-21.928,69.077-21.383,95.773c0.852,41.715,15.313,51.813,33.144,81.811s23.399,58.497,23.399,58.497
	s1.253-101.45,16.84-130.494c17.667-32.92,26.961-92.673,33-129.712c2.541-15.584-6.576-34.542-7.788-51.875L255,0
	c0,0,58.653,78.999,34.653,144.333c-24,65.333-27.653,79.792-34.361,111.395c-2.555,12.035-0.284,49.835-7.292,93.605
	c-8.494,53.052-6.203,115.053-3,127.526"/>
<g>
	<line fill="#FFFFFF" x1="456" y1="476.666" x2="0" y2="476.666"/>
	<path fill="#824F12" d="M456,477.359c-19,0.311-37.998,0.606-56.979,1.056c-18.98,0.374-37.979,0.902-56.96,1.39l-14.245,0.369
		l-7.121,0.185l-7.121,0.25c-9.49,0.305-18.981,0.848-28.472,1.386c-9.49,0.535-18.98,1.082-28.471,1.39
		c-9.491,0.34-18.981,0.39-28.471,0.279c-18.98-0.262-37.961-0.44-56.941-0.771c-18.98-0.397-38.158-0.673-57.139-1.231
		C76.12,480.688,38,479.433,0,477.359v-1c38-2.073,76.119-3.329,114.08-4.302c18.98-0.559,38.06-0.834,57.041-1.231
		c18.98-0.33,38.01-0.509,56.99-0.771c9.49-0.11,19.005-0.061,28.496,0.279c9.49,0.308,18.992,0.854,28.482,1.39
		c9.49,0.538,18.987,1.081,28.478,1.386l7.121,0.25l7.118,0.185l14.236,0.369c18.98,0.487,37.999,1.016,56.979,1.39
		c18.98,0.449,37.979,0.745,56.979,1.056V477.359z"/>
</g>
<path fill="#383838" d="M224.744,496.983c0,0-4.087,3.722-9.109,3.016c-5.024-0.703-9.518,4.446-9.518,4.446
	s4.423-3.355,6.924-2.864c2.499,0.492,2.499,0.492,2.499,0.492s4.501,0.336,8.636-1.967"/>
<circle fill="#383838" cx="220.375" cy="517.579" r="13.042"/>
<circle fill="#FFFFFF" cx="220.054" cy="517.281" r="11.052"/>
<text transform="matrix(1 0 0 1 212.4424 519.8232)" font-family="'MyriadPro-Regular'" font-size="6.1108">TASK1</text>
<path display="none" fill="#257C16" d="M205.437,405.249c0,0-3.526,16.085-28.715,25.325c-25.189,9.241-25.004,13.517-25.004,13.517
	s2.297-9.977,4.147-13.517c1.504-2.879,8.164-18.513,17.743-22.422C187.406,402.522,205.437,405.249,205.437,405.249z"/>
<path display="none" fill="#257C16" d="M233.25,418.916c0,0,7.196-11.422,23.223-11.749c16.027-0.327,25.484,20.973,36.277,22.607
	c10.794,1.636,15.25,1.142,15.25,1.142C315.628,429.7,255.133,484.11,233.25,418.916z"/>
<path display="none" fill="#257C16" d="M208.275,492.836c0,0,0.596,18.619-23.336,27.398c-23.932,8.779-36.45,0.098-36.45,0.098
	s2.557,0.316,4.746-1.857c2.19-2.176,15.699-19.168,24.8-22.881C191.145,490.244,208.275,492.836,208.275,492.836z"/>
</svg>
