<?xml version="1.0" encoding="utf-8"?>
<!-- Generator: Adobe Illustrator 15.0.0, SVG Export Plug-In  -->
<!DOCTYPE svg PUBLIC "-//W3C//DTD SVG 1.1//EN" "http://www.w3.org/Graphics/SVG/1.1/DTD/svg11.dtd" [
	<!ENTITY ns_flows "http://ns.adobe.com/Flows/1.0/">
]>
<svg version="1.1"
	 xmlns="http://www.w3.org/2000/svg" xmlns:xlink="http://www.w3.org/1999/xlink" xmlns:a="http://ns.adobe.com/AdobeSVGViewerExtensions/3.0/"
	 x="0px" y="0px" width="60px" height="32px" viewBox="148.779 458.941 60 32" enable-background="new 148.779 458.941 60 32"
	 xml:space="preserve">
<defs>
</defs>
<g display="none">
	<path display="inline" fill="#257C16" d="M237.652,489.142c-2.031-3.704-4.446-7.334-7.039-10.756
		c-2.609-3.426-5.459-6.679-8.619-9.608c-3.159-2.921-6.637-5.536-10.508-7.45c-3.854-1.916-8.157-3.07-12.529-2.927
		c4.355-0.396,8.796,0.514,12.841,2.245c4.064,1.727,7.78,4.199,11.184,7.002c3.405,2.813,6.51,5.973,9.382,9.324
		c2.868,3.372,5.51,6.873,7.897,10.688L237.652,489.142z"/>
</g>
<path display="none" fill="#257C16" d="M201.632,451.825c0,0,4.156,1.603,5.319,3.548c1.163,1.946,1.254,4.833,1.254,4.833
	s-4.063-0.97-5.819-5.244C200.63,450.688,201.632,451.825,201.632,451.825z"/>
<path display="none" fill="#603B13" d="M216.29,512.066c0,0,6.592-95.087-35.406-150.584S59.39,217.489,26.392,149.993
	C-6.607,82.496,0.685,0,0.685,0s7.707,97.495,42.206,148.493c34.499,50.997,34.499,50.997,34.499,50.997l0,0
	c0,0,109.832,109.495,127.662,139.493s23.399,58.497,23.399,58.497s1.253-101.45,16.84-130.494
	c17.667-32.92,69.087-86.995,67.587-124.493c-1.5-37.499-37.498-91.496-37.498-91.496l-3.756-14.265c0,0,84,88.667,60,154
	c-24,65.333-56.333,66.063-57.999,103.333c-0.549,12.291-18.326,48.229-25.334,92c-8.494,53.052-6.203,115.053-3,127.526"/>
<path fill="#257C16" d="M208.565,459.569c0,0,0.596,18.619-23.336,27.398c-23.932,8.779-36.45,0.098-36.45,0.098
	s2.557,0.316,4.746-1.857c2.19-2.176,15.699-19.168,24.8-22.881C191.435,456.978,208.565,459.569,208.565,459.569z"/>
</svg>
