<?xml version="1.0" encoding="utf-8"?>
<!-- Generator: Adobe Illustrator 15.0.0, SVG Export Plug-In  -->
<!DOCTYPE svg PUBLIC "-//W3C//DTD SVG 1.1//EN" "http://www.w3.org/Graphics/SVG/1.1/DTD/svg11.dtd" [
	<!ENTITY ns_flows "http://ns.adobe.com/Flows/1.0/">
]>
<svg version="1.1"
	 xmlns="http://www.w3.org/2000/svg" xmlns:xlink="http://www.w3.org/1999/xlink" xmlns:a="http://ns.adobe.com/AdobeSVGViewerExtensions/3.0/"
	 x="0px" y="0px" width="173px" height="130px" viewBox="139.624 322.399 173 130" enable-background="new 139.624 322.399 173 130"
	 xml:space="preserve">
<defs>
</defs>
<g>
	<path fill="#257C16" d="M203.15,391.139c0.516-4.47,1.396-8.768,2.537-13.045c1.152-4.26,2.597-8.448,4.463-12.451
		c1.868-3.993,4.161-7.824,7.088-11.13c2.908-3.301,6.527-6.032,10.63-7.546c-4.01,1.749-7.398,4.642-10.055,8.027
		c-2.673,3.393-4.69,7.249-6.286,11.244c-1.594,4.003-2.768,8.166-3.652,12.38c-0.87,4.204-1.491,8.521-1.732,12.737L203.15,391.139
		z"/>
</g>
<path fill="#257C16" d="M220.054,352.203c0,0,3.472-2.789,3.988-4.997c0.517-2.208-0.274-4.985-0.274-4.985s-3.577,2.16-3.95,6.766
	C219.446,353.593,220.054,352.203,220.054,352.203z"/>
<g>
	<path fill="#257C16" d="M206.652,395.142c-2.031-3.704-4.446-7.334-7.039-10.756c-2.609-3.426-5.459-6.679-8.619-9.608
		c-3.159-2.921-6.637-5.536-10.508-7.45c-3.854-1.916-8.157-3.07-12.529-2.927c4.355-0.396,8.796,0.514,12.841,2.245
		c4.064,1.727,7.78,4.199,11.184,7.002c3.405,2.813,6.51,5.973,9.382,9.324c2.868,3.372,5.51,6.873,7.897,10.688L206.652,395.142z"
		/>
</g>
<path fill="#257C16" d="M205.727,371.982c0,0-3.526,16.085-28.715,25.325c-25.189,9.241-25.004,13.517-25.004,13.517
	s2.297-9.977,4.147-13.517c1.504-2.879,8.164-18.513,17.743-22.422C187.696,369.256,205.727,371.982,205.727,371.982z"/>
<path fill="#257C16" d="M233.54,385.649c0,0,7.196-11.422,23.223-11.749c16.027-0.327,25.484,20.973,36.277,22.607
	c10.794,1.636,15.25,1.142,15.25,1.142C315.918,396.434,255.423,450.844,233.54,385.649z"/>
<g>
	<path fill="#257C16" d="M224.389,483.632c2.438-4.766,5.078-9.375,7.865-13.913c2.793-4.529,5.75-8.959,8.934-13.224
		c3.189-4.256,6.6-8.363,10.41-12.083c3.812-3.675,8.045-7.109,13.026-9.012c-4.916,2.058-9.002,5.599-12.672,9.365
		c-3.665,3.81-6.922,7.991-9.955,12.316c-3.027,4.331-5.824,8.821-8.455,13.403c-2.621,4.583-5.109,9.266-7.352,14.016
		L224.389,483.632z"/>
</g>
<path fill="#257C16" d="M259.38,438.407c0,0,4.16-1.592,6.327-0.925s4.167,2.75,4.167,2.75s-3.668,2-7.834,0
	S259.38,438.407,259.38,438.407z"/>
<path fill="#257C16" d="M259.263,438.771c0,0-4.334-1.026-5.749-2.798s-1.896-4.619-1.896-4.619s4.158,0.413,6.475,4.411
	C260.409,439.764,259.263,438.771,259.263,438.771z"/>
<path fill="#257C16" d="M199.632,451.825c0,0,4.156,1.603,5.319,3.548c1.163,1.946,1.254,4.833,1.254,4.833s-4.063-0.97-5.819-5.244
	C198.63,450.688,199.632,451.825,199.632,451.825z"/>
<path fill="#603B13" d="M216.29,512.066c0,0,6.592-95.087-35.406-150.584S59.39,217.489,26.392,149.993
	C-6.607,82.496,0.685,0,0.685,0s7.707,97.495,42.206,148.493c34.499,50.997,34.499,50.997,34.499,50.997l0,0
	c0,0,109.832,109.495,127.662,139.493s23.399,58.497,23.399,58.497s1.253-101.45,16.84-130.494
	c17.667-32.92,69.087-86.995,67.587-124.493c-1.5-37.499-37.498-91.496-37.498-91.496l-3.756-14.265c0,0,84,88.667,60,154
	c-24,65.333-56.333,66.063-57.999,103.333c-0.549,12.291-18.326,48.229-25.334,92c-8.494,53.052-6.203,115.053-3,127.526"/>
<path fill="#257C16" d="M177.263,365.771c0,0-4.334-1.026-5.749-2.798s-1.896-4.619-1.896-4.619s4.158,0.413,6.475,4.411
	C178.409,366.764,177.263,365.771,177.263,365.771z"/>
</svg>
